<svg t="1704530318539" class="icon" viewBox="0 0 1388 1024" version="1.1" xmlns="http://www.w3.org/2000/svg" p-id="13807" width="128" height="128"><path d="M1087.333343 76.910303L756.098874 380.588344v447.776491l489.683936 2.58535-4.443087-655.115398-154.00638-98.924484zM315.49015 395.357351l329.345771 5.913796v406.503772c-82.452551-33.129639-146.94698-72.761358-189.225973-125.61397-19.088246-29.166468-43.114975-53.394452-76.616162-68.117015-23.22171-5.325512-44.8179-7.492872-63.472673-3.39037z" fill="#FDFDFF" p-id="13808"></path><path d="M1078.524575 16.549339h17.865235c2.04351 21.797445 9.288684 33.748885 17.029254 39.322095l-43.904513-1.548114c5.43388-8.452702 8.917137-20.419624 9.010024-37.773981z" fill="#161414" p-id="13809"></path><path d="M1214.061955 54.276877h9.164835v24.58405l-23.422965-5.604173a21.472341 21.472341 0 0 0 14.25813-18.979877z" fill="#1A1A1A" p-id="13810"></path><path d="M20.853095 755.123562c50.762658-10.836798 119.204777-60.066823 199.830555-135.847003 49.895714-12.725497 158.108882-12.911271 178.853609 8.158561 23.779031 50.685252 258.98399 205.899161 297.470104 200.000846 34.058508-5.279069 102.841212 15.248923 102.856693 3.870285v127.502669h59.137955v56.026245H134.31437c-35.745952-17.478207-65.59359-41.319162-83.164684-78.597747C11.425081 853.475244-1.919661 790.637297 20.853095 755.123562z" fill="#D87777" p-id="13811"></path><path d="M156.421438 360.323532l86.50861-55.004491h504.019472c-24.475682 18.856028-57.45051 36.736745-97.438295 60.376446z" fill="#B5B4BA" p-id="13812"></path><path d="M364.054486 230.049739h452.049286c-11.223826 11.316713-25.791579 22.045143-42.960163 32.355583H364.054486z" fill="#CACAED" p-id="13813"></path><path d="M385.433941 181.500884h487.981011l-35.978169 30.312072-450.361842-0.185773-1.641-30.126299zM1087.348825 85.223675c-105.473006 141.993015-212.757306 261.491934-331.296395 334.392623v-59.741719c112.872991-73.117424 222.928415-179.906327 331.296395-309.622799 39.151803 44.895306 95.162567 86.477648 156.359513 127.131121-43.718739-7.33806-106.541205-31.488639-156.359513-92.159226z" fill="#9493A3" p-id="13814"></path><path d="M1105.384353 69.618686c46.44342 16.146829 90.657555 19.800378 121.774646 11.517968 34.77064 40.250964 94.434954 67.90028 150.167057 86.353799-37.7585 1.377821-94.760057 1.021755-144.222299 2.833048-57.342142-25.729655-99.466324-59.385653-127.719404-100.704815z" fill="#5E5E77" p-id="13815"></path><path d="M1053.8786 235.065629L1139.411898 262.482727l4.179908 92.453368c-34.615829-10.480732-68.117016-20.976945-87.576809-31.720856-5.604173-26.999108-5.604173-56.738378-2.136397-88.14961z" fill="#B5B4BA" p-id="13816"></path><path d="M1018.813818 230.049739l35.064782 5.01589s-3.467775 79.433729 4.040578 88.14961 85.626185 31.64345 85.626184 31.64345l-6.517559 25.358107-118.260428-32.789054z" fill="#69697C" p-id="13817"></path><path d="M449.66519 953.823993V675.256361l-66.863043-59.494021H227.820455L116.944531 706.559226l-100.62741 52.976461c-14.567753 115.257087 35.71499 189.365303 107.470074 249.850117h50.638808l-1.145604-261.476453a243.580255 243.580255 0 0 1 243.982765-69.26262v275.177262z" fill="#BC5557" p-id="13818"></path><path d="M1388.286703 256.476045l-88.196054 0.046443v517.998942l88.196054-116.789719V256.476045z" fill="#EBF5F7" p-id="13819"></path><path d="M1233.258568 167.892962l144.052007-0.402509v88.985592l-77.219926 0.046443v517.998942l-65.438778 61.754267-1.393303-668.382735z" fill="#BAC6D3" p-id="13820"></path><path d="M246.382342 413.114219h33.625036v194.659853h-33.625036z" fill="#CACAED" p-id="13821"></path><path d="M636.739285 413.114219h52.295291v405.296243l-52.295291-10.000817V413.114219z" fill="#D3D3ED" p-id="13822"></path><path d="M250.577731 359.874579h64.896938v247.884012h-35.482772V413.114219h-29.414166v-53.23964z" fill="#9C9BBC" p-id="13823"></path><path d="M689.034576 828.364835h67.064298V359.874579H315.474669v53.23964h373.559907v415.250616z" fill="#A9A9BF" p-id="13824"></path><path d="M312.208149 96.122398l42.433804 47.604505 641.987392 9.288684-55.886915 57.806576-122.935733-0.526358c3.096228 3.653549 72.869726-25.187815 32.247215-28.129232-17.369839-2.430539-438.379439 2.105435-452.389871 2.105435s17.509169 25.683211 17.509169 25.683212c-30.048893 8.499146-80.022012-0.077406-110.721112-32.99031l-10.836798-64.912419z" fill="#5E5E77" p-id="13825"></path><path d="M801.938529 150.089652l71.770565-90.920735 45.824174 50.422072h117.393484l-45.313297 48.812035-189.674926-8.313372zM363.69842 209.970701h577.04401l-51.799895 52.41914-117.052899-1.8887c1.269453 1.749369 41.412049-22.045143 33.191564-24.32087-6.331786-1.749369-440.732572-3.096228-440.732572-3.096228z" fill="#53536D" p-id="13826"></path><path d="M246.382342 305.319041h498.074714c-20.125482 16.193272-48.378562 32.04596-94.620727 54.18399l111.464208 0.325104 130.041575-99.079295-579.133963-0.232217z" fill="#5E5E77" p-id="13827"></path><path d="M237.496168 675.256361h32.556837v285.580588h-32.556837zM338.835709 666.973951h29.243874v291.834969h-29.243874zM493.383929 731.096833l24.84723 12.137213v213.08241H493.383929V731.096833z" fill="#BC5557" p-id="13828"></path><path d="M161.081261 958.80892l319.081775 2.028029v50.886507l-319.081775-2.337652v-50.576884zM592.850253 788.686673l29.011656 13.220894v154.408889l-29.011656-0.309623V788.686673zM675.132512 824.726767l23.717106 6.594966v122.50226H675.132512v-129.097226zM774.722685 834.990763l23.144304-1.161086v119.994316h-23.144304v-118.83323z" fill="#BC5557" p-id="13829"></path><path d="M756.098874 821.707945h496.077647v14.629677H756.098874z" fill="#FDFDFF" p-id="13830"></path><path d="M1238.466424 825.310406l135.181314-178.547083 14.577041 11.036505-135.181314 178.547083z" fill="#EEF8FF" p-id="13831"></path><path d="M114.653322 369.209706a15.961055 15.961055 0 0 1-4.133464-0.495397 9.195797 9.195797 0 0 1-6.951032-10.140146c1.052718-7.988268 8.003749-8.220485 16.069423-8.483665h0.309623c12.121733-3.096228 42.062257-14.614196 92.88684-39.771048 50.483997-24.971079 83.79941-44.663089 91.168433-50.886507l0.758575-1.424265c2.662756-4.923002 7.090362-5.124257 14.397461-5.464842 4.257313-0.185774 10.527175-0.371547 18.577367-0.510878 14.985743-0.263179 36.876075-0.448953 65.020788-0.557321 47.434213-0.170293 113.414831-0.092887 196.0996 0.216736 140.739043 0.526359 283.041681 1.548114 284.465946 1.548114l-0.139331 18.298707c-210.713795-1.548114-525.693068-2.956898-564.860352-0.712132-14.273611 14.53679-89.573876 51.954706-98.46005 56.335868-16.812518 8.313372-33.036753 15.930093-47.279401 22.230917 11.843072 0 25.420032-0.123849 40.622511-0.154812 53.409933-0.123849 127.843253 0 221.225489 0.185774 158.991307 0.433472 319.995162 1.284935 321.58972 1.284935l-0.092887 18.298707c-161.963686-0.805019-570.66578-2.523426-633.782387-0.727613a36.117499 36.117499 0 0 1-7.492872 0.928868z" fill="#1A1A1A" p-id="13832"></path><path d="M239.601603 359.874579h21.952256v250.748023h-21.952256zM301.247502 359.874579h21.952256v254.138393h-21.952256zM757.600544 370.045688l-11.827591-18.484482c141.451175-90.487263 246.150125-204.583264 338.29387-314.390989l16.827999 14.103318c-93.242906 111.154585-199.350639 226.705813-343.294278 318.772153z" fill="#1A1A1A" p-id="13833"></path><path d="M745.122745 354.038189h21.952257v470.673097h-21.952257zM1249.250586 158.35658h139.036117v18.283226h-139.036117z" fill="#1A1A1A" p-id="13834"></path><path d="M1366.334447 167.490453h21.952256v490.287701h-21.952256z" fill="#1A1A1A" p-id="13835"></path><path d="M1383.34822 175.958636c-74.619094-21.673596-130.769189-52.899055-166.917651-92.886839l-2.353133-2.616313v-32.200771h18.298707v25.094928c33.919178 36.241349 86.400242 64.850495 156.065372 85.053383z" fill="#1A1A1A" p-id="13836"></path><path d="M1206.027243 91.524499c-50.483997 0-100.317787-18.670255-116.108549-25.156852l6.951032-16.905405c35.606622 14.614196 88.629526 28.160194 131.016887 22.354766l2.476982 18.112934a180.045657 180.045657 0 0 1-24.336352 1.594557zM365.138166 220.946829h-0.557321c-8.468184-0.387028-34.786121-14.072356-35.049301-14.211687-30.002449-15.651432-32.72713-23.76355-33.748885-26.813334-0.13933-0.433472-14.53679-45.034636-10.604581-61.413682 4.721748-19.738453 15.48114-31.519601 28.624628-31.519601h3.514219l2.569869 2.275728c3.096228 2.786605 6.827183 7.74057 13.019639 16.317121 6.424673 8.870693 21.45686 29.59994 27.525467 30.96228l1.873218 0.092887 0.866943 0.448953c25.311664 4.07154 392.044387 5.542248 634.618369 5.542248v18.298707c-1.548114 0-158.35658 0-314.592244-0.774057-268.117862-1.284935-314.26714-3.560662-324.422768-5.387436-12.648091-1.114642-24.878192-16.719631-40.684436-38.517076-2.430539-3.374889-5.077814-7.012956-7.167768-9.706675-3.096228 2.647275-6.192456 8.886174-7.957306 16.146829-1.671963 6.981994 4.923002 35.606622 10.078222 51.087762 4.412125 7.322579 41.799078 25.930909 51.861819 28.640108h0.758576l569.535656-1.641v18.298707l-568.157835 1.62552a10.666505 10.666505 0 0 1-1.90418 0.247698z m-2.554388-83.92326" fill="#1A1A1A" p-id="13837"></path><path d="M354.905133 209.986182h18.283226v52.41914h-18.283226zM801.195434 159.502185a9.458976 9.458976 0 0 1-3.545181-0.743095l-7.245173-2.972379 1.811293-7.74057 17.78783 4.257314-8.901656-2.136398 4.644342-7.848938a8.948099 8.948099 0 0 0-10.356882 0.94435c5.557729-5.325512 63.070164-76.414907 70.578517-88.861743a10.465251 10.465251 0 0 1 8.514627-5.108776c8.452702-0.40251 15.837206 8.390778 34.662272 33.640517 4.799153 6.440154 11.177383 15.016706 14.087837 18.020046 11.069015 1.006274 65.345892 0.526359 113.507718-0.495396l0.387029 18.298707c-74.681019 1.548114-115.272568 1.393303-120.660005-0.54184-4.721748-1.687444-8.622995-6.424673-21.9987-24.351833-5.062333-6.811702-12.648091-17.029254-17.818792-22.772756-9.722156 13.468592-28.407892 36.845113-34.848046 44.895305-8.359816 10.403326-16.735112 20.667322-23.020455 28.175675-3.235558 3.870285-5.820909 6.92007-7.74057 9.040986-2.507945 2.910454-5.557729 6.300824-9.846005 6.300824zM1134.767556 389.613848c-7.260655 0-22.556021-2.399577-57.419548-12.384912-55.732104-16.02298-60.252597-23.22171-61.92456-25.992833-3.93221-6.192456-5.851871-27.866052-5.71254-64.277693 0.201255-55.623736 4.551455-60.113266 6.904588-62.528325 3.312964-3.405851 8.003749-3.638068 12.168176-3.421332 13.391186 0.696651 42.573135 7.941825 63.472674 13.933026 47.898647 13.700809 52.635876 19.614604 54.32332 21.843889s6.362749 8.081155 6.192456 54.973528c-0.108368 21.565228-1.424265 49.539648-4.133465 63.333343-1.207529 6.192456-2.864011 10.759392-7.012956 13.128007-1.099161 0.54184-2.569869 1.393303-6.858145 1.393302z m-4.984927-14.583233z m-98.924484-33.934659c11.316713 8.050193 80.192305 27.556429 100.008164 30.079855 3.994134-19.661048 5.015889-90.131197 1.130123-103.057949-11.781147-7.492872-81.508202-26.983627-101.881382-28.825882-3.173634 20.017114-2.879492 89.372621 0.743095 101.803976z m-4.814635-101.881382z" fill="#1A1A1A" p-id="13838"></path><path d="M758.885479 840.471086c-23.531333 0-46.799486-1.006274-63.472674-4.040577-48.982327-8.886174-105.627818-40.142596-108.011913-41.458493l-0.170293-0.108368c-2.353133-1.36234-57.806576-33.764366-89.790611-56.506161-14.335536-10.202071-30.528808-29.027137-47.66643-48.966845-21.549747-25.079447-45.963504-53.487338-65.020788-61.181465-33.981102-13.762733-130.583415-15.48114-156.607211-2.678237-7.74057 3.761917-25.156852 19.274019-43.625852 35.699508C137.271268 703.2153 72.622027 760.696772 24.769824 762.492584l-0.68117-18.283226c41.303681-1.548114 105.689742-58.828332 148.293839-96.648756 21.936775-19.506236 37.789463-33.594074 47.743836-38.455152 30.250147-14.79997 132.828181-13.515035 171.500068 2.151879 23.144304 9.288684 47.991534 38.253897 72.002781 66.197354 16.394527 19.072764 31.875667 37.154736 44.39991 46.009948 30.683619 21.828407 85.657147 54.029178 88.242497 55.54633s57.125406 31.225459 102.330335 39.430463c46.335052 8.406259 151.606803 0 152.659521-0.108368l1.548114 18.221302c-2.941417 0.232217-48.920402 3.916728-93.924076 3.916728zM868.151364 1023.984519H152.675002v-18.283226h697.193136v-37.74302H91.12199v-18.298707h777.029374v74.324953z" fill="#7C1F1F" p-id="13839"></path><path d="M155.121022 666.973951h18.283226v289.342505H155.121022zM76.32202 728.991398h18.283226v238.920432H76.32202zM260.903651 608.610054h18.283226v345.22942h-18.283226zM358.914748 614.012972h18.283226v339.811021h-18.283226zM440.515836 675.256361h18.283227v278.567632h-18.283227zM509.097286 741.531121h18.283227v214.800816h-18.283227zM612.712556 801.907567h18.283226v151.916426h-18.283226zM693.586031 828.364835h18.283226v125.474639h-18.283226zM790.714703 830.439308h18.283226v123.384685h-18.283226z" fill="#7C1F1F" p-id="13840"></path><path d="M909.942702 113.099016l14.580137-11.031861 33.083196 43.729576-14.580137 11.030313zM1252.919616 836.275697H1234.620909V175.045249c-25.853504-7.647683-71.02747-40.792804-80.811551-48.115383-20.404142-15.264404-68.473082-53.286084-74.402358-76.60068l-0.26318-1.021755v-1.052718c-0.263179-13.050601-0.696651-34.058508-0.851462-37.882349h-0.077406c0-10.171109 8.700401-10.372364 9.071948-10.372364 2.089954 0 8.994542 0.68117 9.288684 10.527175 0 1.068199 0.077406 2.616313 0.123849 4.47405 0.092887 3.653549 0.201255 8.530108 0.309623 13.406667 0.170293 7.74057 0.309623 15.357291 0.371547 18.267745 3.436813 10.000816 25.574843 34.321687 67.373921 65.609071 38.02168 28.454335 70.62496 46.056391 78.953814 46.056391h9.149353zM1078.307839 10.372364a9.149354 9.149354 0 0 0 18.128415 0z" fill="#1A1A1A" p-id="13841"></path><path d="M151.808058 1023.984519c-38.70285 0-74.959679-26.61208-105.024053-77.049634C23.051417 907.101912 5.511286 855.255575 1.037236 811.583279c-4.07154-39.78653 3.978653-63.673928 22.695351-67.265553l3.436814 17.973604c-5.046852 0.959831-11.316713 14.381979-7.941825 47.434212 4.164427 40.545105 21.147237 90.734961 43.347192 127.843254 18.577368 31.163535 49.090695 68.117016 89.310696 68.117015h0.866944l0.27866 18.283227z" fill="#BC5557" p-id="13842"></path><path d="M1078.214952 9.010023h18.283226V24.769824h-18.283226z" p-id="13843"></path><path d="M1214.030993 48.440487a9.164835 8.700401 0 1 0 18.329669 0 9.164835 8.700401 0 1 0-18.329669 0Z" p-id="13844"></path></svg>