<svg t="1705136700608" class="icon" viewBox="0 0 1536 1024" version="1.1" xmlns="http://www.w3.org/2000/svg" p-id="5537" width="128" height="128"><path d="M768 1024c586.017129 0 768-32.364424 768-72.282353s-212.028235-72.282353-768-72.282353S0 911.799718 0 951.717647s181.982871 72.282353 768 72.282353z" fill="#EBEBEB" p-id="5538"></path><path d="M679.8336 290.514824l8.270306 17.606776c0.987859 2.108235 1.283012 4.475482 0.831247 6.752376l-11.047153 56.344095c-0.530071 2.758776 0.006024 5.619953 1.517929 7.9872l30.328471 47.555764c2.072094 3.252706 2.276894 7.354729 0.542118 10.794165l-17.769412 35.382212a10.944753 10.944753 0 0 0 0.560188 10.824282l29.635765 46.16433c1.867294 2.897318 2.2528 6.505412 1.054117 9.728l-17.805552 47.826823a10.944753 10.944753 0 0 0 1.686588 10.631529l26.407153 33.207718c2.547953 3.192471 3.102118 7.541459 1.4336 11.270024l-17.962165 40.285364a10.926682 10.926682 0 0 0 0.246965 9.438871l18.666917 36.442353c3.614118 7.053553 3.132235 15.516612-1.264941 22.106353l-9.017223 13.540894-333.944471 41.002165a21.889506 21.889506 0 0 1-24.383247-19.052424l-52.675765-429.007812a21.889506 21.889506 0 0 1 19.052424-24.38927l345.636141-42.441788z" fill="#EDF1FF" p-id="5539"></path><path d="M446.75861 374.261135m-10.863172 1.333829a10.944753 10.944753 0 1 0 21.726345-2.667659 10.944753 10.944753 0 1 0-21.726345 2.667659Z" fill="#9FB4FF" p-id="5540"></path><path d="M412.841242 367.398718a10.938729 10.938729 0 1 0 12.197002 9.529342" fill="#9FB4FF" p-id="5541"></path><path d="M380.263682 371.398739a10.938729 10.938729 0 1 0 12.191024 9.530077" fill="#11BC81" p-id="5542"></path><path d="M445.060518 360.405835a13.950494 13.950494 0 1 0 3.39727 27.702212 13.950494 13.950494 0 1 0-3.39727-27.702212z m0.728847 5.981365a7.932988 7.932988 0 1 1 1.927529 15.751529 7.932988 7.932988 0 0 1-1.927529-15.751529z m-33.310118-1.975718a3.011765 3.011765 0 1 1 0.728847 5.975342 7.932988 7.932988 0 1 0 8.842541 6.908988 3.011765 3.011765 0 1 1 5.975341-0.734871 13.950494 13.950494 0 1 1-27.696188 3.403294 13.950494 13.950494 0 0 1 12.143436-15.552753z m-32.587294 3.999624a3.011765 3.011765 0 0 1 0.740894 5.975341 7.932988 7.932988 0 1 0 8.830494 6.908988 3.011765 3.011765 0 1 1 5.981365-0.73487 13.944471 13.944471 0 1 1-27.702212 3.403294 13.956518 13.956518 0 0 1 12.155482-15.552753z" fill="#6274B3" p-id="5543"></path><path d="M712.348612 325.903059l-9.035294-19.257224-345.624094 42.441789a27.105882 27.105882 0 0 0-23.600189 30.201976l52.139671 424.622682a27.105882 27.105882 0 0 0 30.208 23.600189l333.137318-40.899765 9.065411-13.613177a27.105882 27.105882 0 0 0 1.566118-27.382964l-17.835671-34.816a9.071435 9.071435 0 0 1-0.210823-7.800471l17.474259-39.183059a15.058824 15.058824 0 0 0-1.963671-15.510588l-25.6-32.189741a9.035294 9.035294 0 0 1-1.403482-8.782306l17.395953-46.724518a15.040753 15.040753 0 0 0-1.439624-13.384282l-28.99727-45.176471a9.029271 9.029271 0 0 1-0.469836-8.932894l17.221271-34.255811a15.058824 15.058824 0 0 0-0.764988-14.860048l-29.750212-46.652235a9.023247 9.023247 0 0 1-1.246871-6.595765l10.890541-55.548988a15.082918 15.082918 0 0 0-1.14447-9.300329z m-353.912471 29.153882l341.28113-41.89967 7.18607 15.299764c0.8192 1.746824 1.060141 3.698447 0.686683 5.589836l-10.878495 55.548988c-0.752941 3.794824-0.006024 7.728188 2.072095 10.986917l29.756235 46.658259c1.710682 2.686494 1.879341 6.071718 0.451765 8.914824l-17.215248 34.255812a15.058824 15.058824 0 0 0 0.783059 14.890164l28.997271 45.176471c1.529976 2.391341 1.855247 5.372988 0.867388 8.035388l-17.401976 46.724518a15.058824 15.058824 0 0 0 2.325082 14.625129l25.606024 32.189741a9.035294 9.035294 0 0 1 1.180611 9.306353l-17.480282 39.189083a15.076894 15.076894 0 0 0 0.355388 13.010823l17.829647 34.809977 0.572236 1.204706a21.082353 21.082353 0 0 1-1.788989 20.082447l-7.535435 11.306164-330.372518 40.568471a21.082353 21.082353 0 0 1-23.491764-18.353694l-52.139671-424.622683a21.082353 21.082353 0 0 1 18.353694-23.491764z" fill="#6274B3" p-id="5544"></path><path d="M733.250259 735.954824l-302.549835 37.165176a12.047059 12.047059 0 0 1-13.426448-10.492988L380.205176 460.715671a12.047059 12.047059 0 0 1 10.486965-13.426447l316.644894-38.875859 23.732706 37.213364a12.047059 12.047059 0 0 1 0.602353 11.8784l-17.209223 34.255812a12.047059 12.047059 0 0 0 0.620423 11.920565l28.997271 45.17647c2.048 3.186447 2.475671 7.155953 1.150494 10.703812l-17.38993 46.724518a12.035012 12.035012 0 0 0 1.867295 11.703718l25.6 32.195764c2.794918 3.511718 3.403294 8.300424 1.572141 12.408471l-17.474259 39.183059a12.047059 12.047059 0 0 0 0.277082 10.402635" fill="#FFFFFF" p-id="5545"></path><path d="M706.9696 405.425694a2.999718 2.999718 0 0 1 2.608188 0.975812l0.301177 0.391529 23.732706 37.213365a15.058824 15.058824 0 0 1 1.222776 13.836047l-0.463812 1.024-17.22127 34.255812a9.0112 9.0112 0 0 0 0 8.10767l0.469835 0.831247 29.003294 45.170448a15.058824 15.058824 0 0 1 1.807059 12.263905l-0.373459 1.120377-17.395953 46.724518c-0.993882 2.674447-0.662588 5.638024 0.849318 8.011294l0.548141 0.771011 25.606024 32.195765c3.264753 4.096 4.138165 9.577412 2.385317 14.468518l-0.421647 1.036047-17.474259 39.189082c-1.114353 2.499765-1.042071 5.360941 0.210824 7.800471a3.011765 3.011765 0 1 1-5.360941 2.740706 15.058824 15.058824 0 0 1-0.771012-11.944659l0.421647-1.054118 17.474259-39.189082a9.035294 9.035294 0 0 0-0.644518-8.559435l-0.536094-0.740895-25.6-32.195764a15.0528 15.0528 0 0 1-2.680471-13.552941l0.349365-1.084236 17.401977-46.71247c0.879435-2.373271 0.722824-4.987482-0.403577-7.216189l-0.463812-0.8192-29.003294-45.17647a15.082918 15.082918 0 0 1-1.252894-13.860141l0.475859-1.030024 17.215247-34.255812a9.035294 9.035294 0 0 0 0.012047-8.083576l-0.469835-0.831247-22.708706-35.611106-314.75953 38.646965a9.041318 9.041318 0 0 0-7.932988 9.203953l0.066259 0.867388 37.0688 301.899294a9.047341 9.047341 0 0 0 9.197929 7.939012l0.873412-0.072283 302.555859-37.147106a3.011765 3.011765 0 0 1 1.264941 5.860895l-0.536094 0.12047-302.543812 37.141083a15.058824 15.058824 0 0 1-16.630964-12.125365l-0.150589-0.981835-37.0688-301.899295a15.058824 15.058824 0 0 1 12.131389-16.636988l0.975811-0.150588 316.644895-38.881882z" fill="#9FB4FF" p-id="5546"></path><path d="M702.572424 370.133835l0.746917 5.975341-361.050353 44.983718-0.746917-5.981365z" fill="#6274B3" p-id="5547"></path><path d="M1204.886588 298.520094a21.889506 21.889506 0 0 1 19.895718 23.708612l-37.671153 430.579953a21.889506 21.889506 0 0 1-23.702588 19.895717l-362.489977-31.713882 11.637459-11.372423a21.859388 21.859388 0 0 0 6.119906-20.142683l-0.289129-1.216753-10.679718-39.520376a10.938729 10.938729 0 0 1 1.168565-8.469083l0.542117-0.8192 25.961412-35.665317a10.9568 10.9568 0 0 0 1.325176-10.468894l-0.385505-0.855341-18.931953-37.978353a10.944753 10.944753 0 0 1 0.084329-9.920753l0.469835-0.825224 27.358871-43.068235c1.662494-2.626259 2.132329-5.806682 1.319153-8.764235l-0.313224-0.981836-19.395764-51.32047a10.938729 10.938729 0 0 1 1.132423-9.926777l0.560188-0.777035 24.756706-30.90673a10.944753 10.944753 0 0 0 1.999812-9.758117l-0.301176-0.909553-19.775247-52.826353a10.980894 10.980894 0 0 1-0.180706-7.149929l0.367435-0.981836 22.521976-52.814306c0.777035-1.831153 1.042071-3.836988 0.764989-5.794635l-0.180706-0.987859-4.433318-18.937976 350.750118 30.689882z" fill="#EDF1FF" p-id="5548"></path><path d="M1181.967059 315.452235a27.105882 27.105882 0 0 1 24.720565 28.093741l-0.078306 1.276989-3.529789 40.36367a3.011765 3.011765 0 0 1-5.999435 0.018071v-0.542118l3.529788-40.36367a21.088376 21.088376 0 0 0-18.016376-22.708706l-1.144471-0.132518-344.413364-30.129694 3.433411 14.667294 0.222871 1.216753a15.119059 15.119059 0 0 1-0.644518 6.896941l-0.421647 1.090259-22.148517 51.940894-0.349365 0.945694c-0.505976 1.608282-0.560188 3.312941-0.150588 4.939294l0.301176 0.957742 19.443953 51.946917 0.361412 1.132424c1.192659 4.294776 0.421647 8.890729-2.090165 12.547012l-0.662588 0.891482-23.883294 29.81647-0.548141 0.740895c-1.4336 2.156424-1.867294 4.800753-1.222777 7.28847l0.295153 0.915577 19.016282 50.344658 0.39153 1.216753a15.058824 15.058824 0 0 1-1.234824 11.053177l-0.578259 0.993882-26.666164 41.977977-0.457788 0.795106a8.999153 8.999153 0 0 0-0.445742 7.312564l0.379483 0.879436 18.407906 36.924235 0.469835 1.066165c1.746824 4.415247 1.307106 9.390682-1.168565 13.4144l-0.656565 0.987858-25.166305 34.581083-0.530071 0.795106a9.041318 9.041318 0 0 0-1.156518 6.095811l0.192753 0.897506 10.22193 37.839812 0.343341 1.421553a27.105882 27.105882 0 0 1-6.565647 23.901365l-1.017977 1.048094-6.017506 5.878965 353.749836 30.954917a21.082353 21.082353 0 0 0 22.708706-18.010353l0.132517-1.156517 30.810353-352.159624a3.011765 3.011765 0 0 1 5.999436-0.018071v0.542118l-30.810353 352.165647a27.105882 27.105882 0 0 1-28.093742 24.720565l-1.270964-0.08433-366.808847-32.087341 15.390117-15.046776a21.058259 21.058259 0 0 0 6.144-18.0224l-0.228894-1.307106-0.295153-1.246871-10.203859-37.767529a15.088941 15.088941 0 0 1 1.084236-10.661647l0.602353-1.102306 0.674635-1.024 25.238588-34.695529c1.626353-2.228706 2.126306-5.053741 1.451671-7.583624l-0.301177-0.933647-0.361411-0.831247-18.359718-36.809788a15.058824 15.058824 0 0 1-0.3072-12.751812l0.481882-1.024 0.590306-1.017977 26.732424-42.0864c1.192659-1.885365 1.650447-4.126118 1.319153-6.210258l-0.192753-0.885459-0.301177-0.945694-18.974117-50.212141c-1.584188-4.192376-1.204706-8.848565 1.030023-12.8l0.602353-0.975812 0.698729-0.957741 23.9616-29.924895c1.614306-2.017882 2.276894-4.608 1.885365-7.029458l-0.192753-0.90353-0.289129-0.873412-19.395765-51.820423a15.179294 15.179294 0 0 1-0.548141-8.716047l0.349365-1.264941 0.451764-1.204706 22.196706-52.073412c0.518024-1.216753 0.764988-2.517835 0.734871-3.746635l-0.072283-0.915577-0.168658-0.945694-5.300706-22.636423 352.689694 30.858541z m17.22127 79.643106a3.011765 3.011765 0 0 1 2.734683 2.722635v0.542118l-0.722824 8.240188a3.011765 3.011765 0 0 1-5.993412 0.018071v-0.542118l0.722824-8.240188a3.011765 3.011765 0 0 1 3.252706-2.740706z" fill="#6274B3" p-id="5549"></path><path d="M1158.619859 482.141365l-21.756988 248.681411a12.047059 12.047059 0 0 1-13.052989 10.9568l-317.873694-27.810635m-19.076517-24.588047a12.065129 12.065129 0 0 1 1.289035-9.3184l0.602353-0.915576 25.238588-34.69553a12.047059 12.047059 0 0 0 1.463718-11.516988l-0.421647-0.945694-18.347671-36.809788a12.035012 12.035012 0 0 1 0.090353-10.926683l0.518024-0.909553 26.732423-42.0864c1.825129-2.879247 2.343153-6.384941 1.445647-9.637647l-0.343341-1.078211-18.974118-50.212142a12.071153 12.071153 0 0 1 1.234824-10.932706l0.626447-0.849317 23.9616-29.930918c2.433506-3.035859 3.234635-7.047529 2.210635-10.745976l-0.337317-1.00593-15.468424-41.333459 334.040847 29.226165a12.047059 12.047059 0 0 1 10.950777 13.052988l-3.475577 39.71313" fill="#FFFFFF" p-id="5550"></path><path d="M1158.878871 479.141647a3.011765 3.011765 0 0 1 2.740705 2.716612v0.542117l-21.756988 248.687436a15.058824 15.058824 0 0 1-15.329882 13.745694l-0.987859-0.060235-317.873694-27.804612a3.011765 3.011765 0 0 1-0.018071-5.999435h0.542118l317.879718 27.804611a9.035294 9.035294 0 0 0 9.667764-7.348706l0.120471-0.861364L1155.614118 481.882353a3.011765 3.011765 0 0 1 3.258729-2.740706z m-6.198212-67.385223a15.058824 15.058824 0 0 1 13.745694 15.317835l-0.054212 0.993882-3.475576 39.719153a3.011765 3.011765 0 0 1-5.999436 0.018071v-0.542118l3.475577-39.725176a9.035294 9.035294 0 0 0-7.348706-9.661742l-0.867388-0.12047-329.288283-28.816565 13.854118 36.990494 0.361412 1.132424c1.192659 4.294776 0.421647 8.890729-2.090165 12.547012l-0.662588 0.891482-23.883294 29.81647-0.548141 0.740895c-1.4336 2.156424-1.867294 4.800753-1.222777 7.28847l0.295153 0.915577 19.016282 50.344658 0.39153 1.216753a15.058824 15.058824 0 0 1-1.234824 11.053177l-0.578259 0.993882-26.666164 41.977977-0.457788 0.795106a8.999153 8.999153 0 0 0-0.445742 7.312564l0.379483 0.879436 18.407906 36.924235 0.469835 1.066165c1.746824 4.415247 1.307106 9.390682-1.168565 13.4144l-0.656565 0.987858-25.166305 34.581083-0.530071 0.795106a9.035294 9.035294 0 0 0-0.963765 6.987294 3.011765 3.011765 0 0 1-5.812706 1.578164 15.088941 15.088941 0 0 1 1.084236-10.673694l0.602353-1.096282 0.674635-1.024 25.238588-34.695529c1.626353-2.228706 2.126306-5.053741 1.451671-7.583624l-0.301177-0.933647-0.361411-0.831247-18.359718-36.809788a15.058824 15.058824 0 0 1-0.3072-12.751812l0.481882-1.024 0.590306-1.017977 26.732424-42.0864c1.192659-1.885365 1.650447-4.126118 1.319153-6.210258l-0.192753-0.885459-0.301177-0.945694-18.974117-50.212141c-1.584188-4.192376-1.204706-8.848565 1.030023-12.8l0.602353-0.975812 0.698729-0.957741 23.9616-29.924895c1.614306-2.017882 2.276894-4.608 1.885365-7.029458l-0.192753-0.90353-0.289129-0.873412-15.468424-41.339482a3.011765 3.011765 0 0 1 2.590118-4.059859l0.487906 0.006024 334.040847 29.226165z" fill="#9FB4FF" p-id="5551"></path><path d="M827.132988 347.575718l373.302212 33.310117-0.536094 5.993412L826.608941 353.581176z" fill="#6274B3" p-id="5552"></path><path d="M637.199059 372.856471a28.539482 28.539482 0 0 1 0 40.357647l-40.574494 40.574494a28.412988 28.412988 0 0 1-12.221741 7.228235 36.008659 36.008659 0 0 1-10.553224 26.949271l-23.714635 23.714635-8.649789 8.649788-10.227952 10.227953a36.141176 36.141176 0 1 1-51.115671-51.109647l42.592376-42.586353a36.008659 36.008659 0 0 1 26.142118-10.583341 28.352753 28.352753 0 0 1 7.396894-12.842165l40.574494-40.574494a28.539482 28.539482 0 0 1 40.357647 0z" fill="#CED9FF" p-id="5553"></path><path d="M594.721129 370.730165a31.545224 31.545224 0 0 1 44.610259 44.610259l-40.574494 40.574494c-3.312941 3.312941-7.192094 5.740424-11.324235 7.2704a39.0144 39.0144 0 0 1-10.480941 25.901176l-0.975812 1.011953-32.364424 32.364424a3.011765 3.011765 0 0 1-4.601976-3.843012l0.343341-0.421647 32.364424-32.3584a32.990871 32.990871 0 0 0 9.619576-21.070306 31.460894 31.460894 0 0 1-27.190212-8.854588 31.478965 31.478965 0 0 1-8.963011-26.485459 32.996894 32.996894 0 0 0-19.359624 8.631717l-0.957741 0.927624-42.592377 42.586353a33.129412 33.129412 0 0 0 46.851012 46.857035 3.011765 3.011765 0 0 1 4.258635 4.258636 39.152941 39.152941 0 0 1-56.344094-54.362353l0.975812-1.00593 42.586353-42.592376a38.990306 38.990306 0 0 1 26.027671-11.432659 31.370541 31.370541 0 0 1 7.517364-11.986824z m-43.43567 58.687247l-0.162635 1.04207a25.509647 25.509647 0 0 0 30.087529 28.226259 32.984847 32.984847 0 0 0-9.493082-19.696941 32.990871 32.990871 0 0 0-20.431812-9.571388z m83.787294-54.428612a25.527718 25.527718 0 0 0-36.092988 0L558.405271 415.563294a25.3952 25.3952 0 0 0-5.40913 7.975153 38.960188 38.960188 0 0 1 22.979765 11.191718 38.972235 38.972235 0 0 1 11.071247 22.106353 25.437365 25.437365 0 0 0 7.451106-5.180236l40.574494-40.574494a25.527718 25.527718 0 0 0 0-36.092988z" fill="#6274B3" p-id="5554"></path><path d="M544.853282 400.375464m-14.907475 14.907475l0 0q-14.907475 14.907475 0 29.81495l34.074228 34.074228q14.907475 14.907475 29.81495 0l0 0q14.907475-14.907475 0-29.81495l-34.074228-34.074228q-14.907475-14.907475-29.81495 0Z" fill="#FFFAB3" p-id="5555"></path><path d="M529.944094 415.280188a21.082353 21.082353 0 0 0 0 29.816471l34.075106 34.075106a21.082353 21.082353 0 1 0 29.816471-29.816471l-34.075106-34.075106a21.082353 21.082353 0 0 0-29.816471 0z m4.264659 4.258636a15.058824 15.058824 0 0 1 20.570353-0.668612l0.722823 0.668612 34.075106 34.075105a15.058824 15.058824 0 0 1-20.576376 21.973836l-0.722824-0.674636-34.069082-34.075105a15.058824 15.058824 0 0 1 0-21.2992z" fill="#6274B3" p-id="5556"></path><path d="M901.421176 75.559153A221.997176 221.997176 0 0 0 758.964706 24.094118c-123.090824 0-222.870588 99.779765-222.870588 222.870588s99.779765 222.870588 222.870588 222.870588c123.0848 0 222.870588-99.779765 222.870588-222.870588 0-58.590871-22.606306-111.899106-59.572706-151.678494m-6.565647-6.770447c-1.132424-1.120376-2.288941-2.234729-3.445459-3.337036" fill="#CED9FF" p-id="5557"></path><path d="M758.964706 21.082353c53.488941 0 104.110682 18.654871 144.384 52.163765a3.011765 3.011765 0 0 1-3.855059 4.62607A218.907106 218.907106 0 0 0 758.964706 27.105882c-121.422306 0-219.858824 98.436518-219.858824 219.858824S637.5424 466.823529 758.964706 466.823529s219.858824-98.436518 219.858823-219.858823a219.003482 219.003482 0 0 0-58.771576-149.624471 3.011765 3.011765 0 0 1 4.415247-4.102023A225.0752 225.0752 0 0 1 984.847059 246.964706c0 124.747294-101.135059 225.882353-225.882353 225.882353s-225.882353-101.135059-225.882353-225.882353S634.217412 21.082353 758.964706 21.082353z m155.35887 61.909835c1.174588 1.114353 2.343153 2.246776 3.493648 3.385224a3.011765 3.011765 0 0 1-4.234542 4.282729 218.654118 218.654118 0 0 0-3.403294-3.29487 3.011765 3.011765 0 0 1 4.144188-4.373083z" fill="#6274B3" p-id="5558"></path><path d="M857.792753 84.961882c56.018824 34.249788 90.913129 95.117553 90.913129 162.002824a3.011765 3.011765 0 0 1-6.023529 0c0-64.764988-33.779953-123.6992-88.033882-156.864753a3.011765 3.011765 0 1 1 3.144282-5.138071z m-18.281412-9.842447c2.909365 1.367341 5.782588 2.806965 8.625694 4.324894a3.011765 3.011765 0 1 1-2.837082 5.312753 186.115012 186.115012 0 0 0-8.348612-4.186353 3.011765 3.011765 0 1 1 2.56-5.451294z" fill="#FFFAB3" p-id="5559"></path><path d="M760.332047 245.320282m-159.623529 0a159.623529 159.623529 0 1 0 319.247058 0 159.623529 159.623529 0 1 0-319.247058 0Z" fill="#FFFAB3" p-id="5560"></path><path d="M760.332047 85.696753c88.160376 0 159.623529 71.469176 159.623529 159.623529 0 88.160376-71.463153 159.623529-159.623529 159.62353-88.154353 0-159.623529-71.463153-159.623529-159.62353 0-88.154353 71.469176-159.623529 159.623529-159.623529z m0 6.023529c-84.829365 0-153.6 68.770635-153.6 153.6 0 84.835388 68.770635 153.6 153.6 153.6s153.6-68.764612 153.6-153.6c0-84.829365-68.770635-153.6-153.6-153.6z" fill="#6274B3" p-id="5561"></path><path d="M760.554918 288.9728a19.648753 19.648753 0 1 1 0.006023 39.303529 19.648753 19.648753 0 0 1-0.012047-39.303529z m21.347388-31.069365c-0.939671 10.8544-10.499012 19.654776-21.353412 19.654777-10.077365 0-18.998212-7.589647-21.016094-17.365836l-0.337318-2.288941-6.794541-78.625129C731.461271 168.423906 744.068518 159.623529 760.554918 159.623529c15.305788 0 27.310682 7.589647 28.153976 17.365836v2.288941l-4.102023 47.423247m-0.873412 10.065318c-0.373459 4.342965-0.710776 8.282353-1.024 11.818164" fill="#11BC81" p-id="5562"></path><path d="M760.554918 288.9728a19.648753 19.648753 0 1 1 0.006023 39.303529 19.648753 19.648753 0 0 1-0.012047-39.303529z m0 6.023529a13.637271 13.637271 0 1 0 0.006023 27.268518 13.637271 13.637271 0 0 0-0.012047-27.268518z m0-138.384564c16.082824 0 29.310494 7.920941 31.033223 19.305411l0.126494 1.084236-0.01807 2.535906-4.096 47.423247a3.011765 3.011765 0 0 1-5.999436-0.518024l4.083953-47.170259 0.018071-2.023906c-0.692706-7.999247-11.336282-14.613082-25.154259-14.613082-14.456471 0-25.1904 7.168-25.178353 15.540706l0.030118 0.843294 6.77647 78.4384 0.3072 2.13233c1.746824 8.475106 9.517176 14.956424 18.070589 14.956423 9.282259 0 17.546541-7.601694 18.34767-16.902023a3.011765 3.011765 0 1 1 5.999436 0.512c-1.072188 12.414494-11.926588 22.407529-24.35313 22.407529-11.023059 0-20.913694-7.908894-23.708612-18.715106l-0.283106-1.210729-0.361411-2.475671-6.794541-78.625129c-1.120376-12.980706 13.119247-22.925553 31.14767-22.925553z m23.431529 77.155388a3.011765 3.011765 0 0 1 2.746729 3.258729l-1.024 11.818165a3.011765 3.011765 0 0 1-5.999435-0.524047l1.024-11.812141a2.999718 2.999718 0 0 1 3.252706-2.740706zM623.248565 243.952941a3.011765 3.011765 0 0 1 0.542117 5.975341l-0.542117 0.048189h-16.516518a3.011765 3.011765 0 0 1-0.542118-5.975342l0.542118-0.048188h16.516518z m292.141176 0a3.011765 3.011765 0 0 1 0.542118 5.975341l-0.542118 0.048189h-16.516517a3.011765 3.011765 0 0 1-0.542118-5.975342l0.542118-0.048188h16.516517zM764.072659 109.146353a3.011765 3.011765 0 0 1-5.975341 0.542118l-0.048189-0.542118V92.641882a3.011765 3.011765 0 0 1 5.975342-0.542117l0.048188 0.542117v16.516518z m0 292.141176a3.011765 3.011765 0 0 1-5.975341 0.542118l-0.048189-0.542118V384.783059a3.011765 3.011765 0 0 1 5.975342-0.542118l0.048188 0.542118v16.516517z" fill="#6274B3" p-id="5563"></path><path d="M194.572047 535.419482c3.933365-1.782965 7.866729-4.999529 11.444706-8.198023a2.698541 2.698541 0 0 0 0.7168-1.427577c-0.361412-0.722824-0.722824-1.072188-1.072188-1.427576-0.361412 0-1.072188 0.361412-1.4336 0.361412a57.392188 57.392188 0 0 1-11.083294 7.842635c-0.722824 0.355388-1.072188 1.421553-0.722824 2.138353 0.722824 0.710776 1.4336 1.066165 2.1504 0.710776z m-47.9232-17.468235c0.722824-0.361412 1.4336-1.072188 1.4336-1.782965-0.361412-1.427576-0.361412-2.499765-0.361412-3.927341l1.4336-4.987482c0.7168-1.427576 1.427576-2.499765 2.505789-3.56593 0.710776-0.722824 0.710776-1.427576 0-2.499764-0.722824-0.710776-1.4336-0.710776-2.505789 0-3.933365 4.276706-5.722353 9.631624-4.650164 15.335906 0.361412 1.066165 1.4336 1.782965 2.144376 1.427576z m65.807059 3.204518c2.861176-2.849129 5.722353-6.415059 8.222118-9.980989 0.361412-0.361412 0.361412-0.722824 0.361411-1.072188-0.361412-0.710776-0.361412-0.710776-0.722823-1.066164-0.361412-0.361412-0.710776-0.361412-1.066165-0.361412-0.361412 0.361412-0.722824 0.361412-1.072188 0.7168-2.861176 3.565929-5.360941 6.776471-8.228141 9.980988-0.722824 0.7168-0.722824 1.427576 0.361411 2.499765 0.710776 0 1.427576 0 2.144377-0.722824z m-45.176471 42.164706c2.861176-2.849129 5.722353-6.415059 8.222118-9.980989 0.361412-0.361412 0.361412-0.722824 0.361412-1.072188-0.361412-0.710776-0.361412-0.710776-0.722824-1.066165-0.361412-0.361412-0.710776-0.361412-1.066165-0.361411-0.361412 0.361412-0.722824 0.361412-1.072188 0.7168-2.861176 3.565929-5.360941 6.776471-8.228141 9.980988-0.722824 0.7168-0.722824 1.427576 0.361412 2.499765 0.710776 0 1.427576 0 2.144376-0.722824z m-10.613459-63.554259c0.361412 0 0.361412 0 0.7168-0.361412 3.933365-1.782965 8.938918-2.493741 13.227671-1.421553 0.7168 0.355388 1.788988-0.361412 1.788988-1.072188 0.361412-0.710776-0.361412-1.782965-1.072188-1.782965-4.650165-1.427576-10.372518-0.710776-15.378071 1.427577-0.722824 0.361412-1.072188 1.066165-0.722823 1.782964 0 0.710776 0.722824 1.427576 1.439623 1.427577z m25.750589 16.040659c0 0.7168 0.355388 1.072188 0.710776 1.427576 0.7168 0.361412 1.072188 0.361412 1.4336-0.361412 0.361412-0.361412 0.7168-0.704753 0.7168-1.421553-0.722824-7.131859-3.577976-12.480753-7.511341-16.40207-0.722824-0.710776-1.788988-0.361412-2.505788 0.361412-0.722824 0.710776-0.722824 1.421553 0.361412 2.493741 3.933365 2.849129 6.077741 7.487247 6.794541 13.902306z m-20.389647 18.540423c-0.361412 0.7168-0.361412 1.782965 0.722823 2.144377a39.863718 39.863718 0 0 0 10.360471 3.565929h0.361412c0.7168 0 1.4336-0.722824 1.4336-1.427576 0.361412-0.722824-0.722824-1.427576-1.4336-1.782965-3.216565-0.361412-6.083765-1.427576-9.294306-2.855153-0.722824-0.710776-1.4336-0.361412-2.1504 0.361412z m23.606211-10.691765c-0.361412-0.361412-0.722824-0.722824-1.072188-0.722823-0.722824-0.349365-1.788988 0.722824-1.788988 1.4336-0.361412 4.276706-1.4336 8.204047-2.505788 12.125365-0.710776 0-1.427576 0.355388-1.788989 0.355388a1.536 1.536 0 0 0-1.427576 1.427576c0 0.710776 0.7168 1.421553 1.427576 1.421553h0.722824c-0.722824 1.427576-1.4336 2.855153-2.1504 4.638118-0.361412 0.710776-0.361412 1.782965 0.7168 2.138353 0.710776 0.361412 1.788988 0.361412 2.144376-0.710777 1.072188-1.782965 1.788988-3.921318 2.861177-6.065694 1.427576-0.361412 2.861176-0.361412 3.933365-0.710776 0.7168-0.361412 1.427576-1.072188 1.072188-1.782965-0.361412-0.710776-1.072188-1.427576-1.788988-1.072188-0.710776 0.361412-1.427576 0.361412-1.788989 0.361412 1.078212-3.565929 1.788988-7.487247 2.505789-11.414589-0.722824-0.710776-1.072188-1.066165-1.072189-1.421553z m-37.18927-2.144376c-0.722824 0.361412-0.722824 1.427576-0.361412 2.499765 1.788988 2.493741 3.933365 4.993506 6.794541 7.131858l2.861177 2.493742c0.7168 0.710776 1.788988 0.361412 2.499764-0.361412 0.722824-0.704753 0.361412-1.776941-0.361411-2.487718a17.992282 17.992282 0 0 1-2.855153-2.499764c-2.499765-2.138353-4.650165-4.276706-6.083765-6.776471a3.065976 3.065976 0 0 0-2.499765 0z m87.973647-38.508424c0.710776 0.361412 1.788988 0.361412 2.144376-0.710776 3.577976-7.131859 5.722353-12.119341 5.722353-12.119341 0.361412-0.722824 0.361412-1.782965-0.722823-2.144377-0.361412-0.361412-0.710776-0.361412-1.421553 0-0.361412 0.361412-0.722824 0.361412-0.722824 0.7168 0 0-1.782965 4.987482-5.722353 12.119341-0.349365 0.7168 0 1.782965 0.722824 2.144377z m-11.806118 21.395577c0.722824 0 1.078212-0.361412 1.4336-0.710777a262.625882 262.625882 0 0 0 8.222118-13.191529c0.361412-0.361412 0.361412-0.722824 0.361412-1.427576-0.361412-0.361412-0.361412-0.722824-0.722824-1.072189-0.361412-0.361412-0.710776-0.361412-1.421553-0.361411-0.361412 0.361412-0.722824 0.361412-1.084235 0.7168-2.493741 4.638118-4.999529 8.914824-7.860706 13.191529-0.361412 0.361412-0.361412 1.072188-0.361412 1.427576 0.361412 1.427576 1.084235 1.427576 1.4336 1.427577zM149.865412 576.427671c3.571953-2.499765 6.794541-4.638118 10.011106-7.137883 0.361412-0.361412 0.7168-0.710776 0.7168-1.421553-0.361412-0.722824-0.361412-1.072188-1.072189-1.427576-0.722824-0.361412-1.072188-0.361412-1.4336 0.361412-3.216565 2.487718-6.433129 4.987482-10.011105 7.125835-0.722824 0.361412-1.072188 1.427576-0.361412 2.493741 0.361412 0 1.4336 0.361412 2.1504 0z m-5.722353 2.849129l-1.4336-2.855153c-6.794541 3.915294-11.806118 5.704282-11.806118 5.704282l1.078212 2.855153c0.7168 0 5.360941-1.782965 12.161506-5.704282zM1331.001224 763.392c3.337035-1.463718 6.680094-4.102024 9.709929-6.746353 0.301176-0.289129 0.608376-0.873412 0.608376-1.168565a4.029741 4.029741 0 0 0-0.909553-1.174588c-0.301176 0-0.909553 0.295153-1.210729 0.295153a48.290635 48.290635 0 0 1-9.408753 6.445177c-0.608376 0.301176-0.909553 1.174588-0.608376 1.764894 0.602353 0.584282 1.216753 0.879435 1.819106 0.584282z m-40.658824-14.366118c0.602353-0.289129 1.210729-0.879435 1.210729-1.463717-0.301176-1.174588-0.301176-2.048-0.301176-3.228612l1.210729-4.096c0.608376-1.180612 1.216753-2.060047 2.126306-2.939482 0.602353-0.584282 0.602353-1.168565 0-2.048-0.602353-0.590306-1.216753-0.590306-2.126306 0-3.337035 3.517741-4.854965 7.914918-3.945411 12.607247 0.301176 0.879435 1.216753 1.463718 1.825129 1.168564z m55.832094 2.638306c2.427482-2.349176 4.854965-5.276612 6.981271-8.21007 0.301176-0.289129 0.301176-0.584282 0.301176-0.879436-0.301176-0.584282-0.301176-0.584282-0.602353-0.879435-0.301176-0.289129-0.608376-0.289129-0.915576-0.289129-0.301176 0.289129-0.602353 0.289129-0.90353 0.584282-2.433506 2.933459-4.553788 5.571765-6.987294 8.210071-0.602353 0.584282-0.602353 1.174588 0.301177 2.048 0.6144 0 1.216753 0 1.825129-0.584283z m-38.333741 34.671436c2.427482-2.349176 4.854965-5.276612 6.981271-8.210071 0.301176-0.295153 0.301176-0.584282 0.301176-0.879435-0.301176-0.584282-0.301176-0.584282-0.602353-0.879436-0.301176-0.295153-0.608376-0.295153-0.909553-0.295153-0.301176 0.295153-0.608376 0.295153-0.915576 0.590306-2.427482 2.927435-4.547765 5.565741-6.975247 8.204047-0.608376 0.590306-0.608376 1.174588 0.301176 2.048 0.602353 0 1.216753 0 1.819106-0.578258z m-9.005177-52.260142c0.301176 0 0.301176 0 0.608377-0.295153 3.337035-1.463718 7.589647-2.048 11.227859-1.168564 0.602353 0.289129 1.517929-0.295153 1.517929-0.879436 0.301176-0.590306-0.301176-1.469741-0.909553-1.469741-3.945412-1.168565-8.800376-0.584282-13.052988 1.174588-0.602353 0.295153-0.903529 0.879435-0.602353 1.463718 0 0.590306 0.602353 1.174588 1.210729 1.174588z m21.847342 13.19153c0 0.590306 0.301176 0.879435 0.608376 1.174588 0.608376 0.295153 0.909553 0.295153 1.216753-0.295153 0.301176-0.289129 0.602353-0.584282 0.602353-1.168565-0.602353-5.866918-3.029835-10.264094-6.366871-13.492706-0.608376-0.584282-1.517929-0.289129-2.126305 0.301177-0.602353 0.584282-0.602353 1.168565 0.301176 2.048 3.337035 2.349176 5.162165 6.156047 5.764518 11.432659z m-17.293553 15.245553c-0.301176 0.584282-0.301176 1.463718 0.602353 1.75887 3.035859 1.463718 5.770541 2.349176 8.8064 2.933459h0.301176c0.602353 0 1.216753-0.590306 1.216753-1.174588 0.301176-0.584282-0.608376-1.174588-1.216753-1.463718-2.728659-0.295153-5.156141-1.174588-7.890823-2.349176-0.602353-0.584282-1.210729-0.289129-1.819106 0.295153z m20.028235-8.794353c-0.301176-0.295153-0.602353-0.584282-0.909553-0.584283-0.608376-0.301176-1.517929 0.584282-1.517929 1.168565-0.301176 3.517741-1.216753 6.746353-2.126306 9.968941-0.602353 0-1.210729 0.295153-1.51793 0.295153-0.602353 0-1.210729 0.584282-1.210729 1.168565 0 0.590306 0.602353 1.174588 1.210729 1.174588h0.608377c-0.602353 1.174588-1.210729 2.349176-1.819106 3.812894-0.301176 0.584282-0.301176 1.463718 0.602353 1.758871 0.608376 0.289129 1.517929 0.289129 1.825129-0.590306 0.903529-1.463718 1.517929-3.222588 2.427483-4.981459 1.210729-0.295153 2.427482-0.295153 3.337035-0.584282 0.602353-0.295153 1.216753-0.879435 0.909553-1.469741-0.301176-0.584282-0.909553-1.168565-1.51793-0.879436-0.602353 0.295153-1.210729 0.295153-1.517929 0.295153 0.909553-2.933459 1.517929-6.156047 2.126306-9.378635-0.602353-0.590306-0.909553-0.879435-0.909553-1.174588z m-31.557271-1.758871c-0.608376 0.295153-0.608376 1.174588-0.301176 2.048 1.511906 2.054024 3.331012 4.108047 5.758494 5.866918l2.427482 2.048c0.608376 0.590306 1.517929 0.301176 2.126306-0.28913 0.602353-0.584282 0.301176-1.463718-0.301176-2.048-0.915576-0.590306-1.517929-1.174588-2.427483-2.054023-2.126306-1.758871-3.945412-3.517741-5.162164-5.571765a2.650353 2.650353 0 0 0-2.120283 0z m74.6496-31.665694c0.602353 0.301176 1.511906 0.301176 1.819106-0.584282 3.035859-5.860894 4.854965-9.962918 4.854965-9.962918 0.301176-0.590306 0.301176-1.469741-0.602353-1.758871-0.3072-0.301176-0.6144-0.301176-1.216753 0-0.301176 0.289129-0.608376 0.289129-0.608376 0.584283 0 0-1.517929 4.102024-4.854965 9.968941-0.301176 0.584282 0 1.463718 0.602353 1.758871z m-10.011105 17.588706c0.602353 0 0.903529-0.289129 1.204705-0.584282a214.799059 214.799059 0 0 0 6.987295-10.842353c0.301176-0.295153 0.301176-0.590306 0.301176-1.174589-0.301176-0.295153-0.301176-0.584282-0.608376-0.879435-0.301176-0.295153-0.602353-0.295153-1.216753-0.295153-0.301176 0.295153-0.602353 0.295153-0.90353 0.590306a130.957553 130.957553 0 0 1-6.686117 10.842353c-0.301176 0.301176-0.301176 0.879435-0.301177 1.174588 0.301176 1.174588 0.915576 1.174588 1.216753 1.174588z m-63.427765 59.223341c3.035859-2.048 5.764518-3.812894 8.493176-5.860894 0.3072-0.301176 0.608376-0.590306 0.608377-1.174588-0.301176-0.584282-0.301176-0.879435-0.90353-1.174588-0.6144-0.289129-0.915576-0.289129-1.216753 0.295152-2.734682 2.048-5.463341 4.102024-8.493176 5.860895-0.6144 0.295153-0.915576 1.174588-0.3072 2.048 0.301176 0 1.210729 0.301176 1.819106 0z m-4.854965 2.343153l-1.216753-2.349176c-5.764518 3.228612-10.011106 4.698353-10.011106 4.698353l0.909553 2.343152c0.602353 0 4.553788-1.463718 10.318306-4.692329z" fill="#11BC81" p-id="5564"></path><path d="M1075.820424 659.576471c-4.740518 0-8.384753 4.144188-8.384753 9.035294 0 4.897129 3.644235 9.035294 8.384753 9.035294 4.746541 0 8.390776-4.138165 8.390776-9.035294 0.361412-5.270588-3.644235-9.035294-8.390776-9.035294z" fill="#FFFAB3" p-id="5565"></path><path d="M656.257506 419.574965a6.384941 6.384941 0 0 1-6.324706-6.493365 6.384941 6.384941 0 0 1 6.324706-6.493365c3.517741 0.361412 5.981365 2.891294 6.330729 6.493365a6.384941 6.384941 0 0 1-6.324706 6.493365z" fill="#6274B3" p-id="5566"></path><path d="M487.436047 684.875294c-2.849129 0-5.035671 2.487718-5.035671 5.421177 0 2.939482 2.186541 5.421176 5.035671 5.421176 2.843106 0 5.029647-2.481694 5.029647-5.421176a4.969412 4.969412 0 0 0-5.029647-5.421177z m-20.437835 0.566212a3.830965 3.830965 0 0 1-3.794824-3.897224c0-2.168471 1.686588-3.897224 3.794824-3.897223 2.108235 0.216847 3.590024 1.734776 3.794823 3.897223 0 2.168471-1.686588 3.897224-3.794823 3.897224z" fill="#7190FF" p-id="5567"></path><path d="M1047.907388 192.006024s-4.288753 14.263718-12.516894 16.40207c0 0 10.372518 4.276706 12.516894 14.974494 0 0 1.4336-15.329882 13.950494-15.691294 0-0.361412-13.233694-7.131859-13.950494-15.68527z m13.233694-23.53393s-1.4336 5.348894-4.650164 6.059671c0 0 3.933365 1.427576 4.650164 5.704282 0 0 0.7168-5.704282 5.005553-5.704282 0.361412-0.361412-4.650165-2.849129-5.005553-6.059671z" fill="#11BC81" p-id="5568"></path><path d="M776.848565 95.629553s-4.288753 14.263718-12.516894 16.402071c0 0 10.372518 4.276706 12.516894 14.974494 0 0 1.4336-15.329882 13.950494-15.691294 0-0.361412-13.233694-7.131859-13.950494-15.685271z m13.233694-23.533929s-1.4336 5.348894-4.650165 6.05967c0 0 3.933365 1.427576 4.650165 5.704282 0 0 0.7168-5.704282 5.005553-5.704282 0.361412-0.361412-4.650165-2.849129-5.005553-6.05967z" fill="#FFFAB3" p-id="5569"></path><path d="M244.928753 683.170635s-3.216565 11.053176-10.011106 12.480753c0 0 8.228141 3.210541 10.011106 11.408565 0 0 1.4336-11.763953 10.372518-12.119341 0.361412 0.355388-10.011106-4.999529-10.372518-11.769977z" fill="#11BC81" p-id="5570"></path><path d="M212.3776 659.076518s-2.439529 8.360659-7.5776 9.444894c0 0 6.222306 2.427482 7.5776 8.625694 0 0 1.084235-8.896753 7.842635-9.167812 0.271059 0.271059-7.5776-3.776753-7.842635-8.902776z m1041.956141-99.930353s-2.192565 8.210071-7.137882 9.306353c0 0 6.0416 2.192565 7.137882 8.764235 0 0 1.102306-8.764235 7.692047-8.764235 0 0-7.692047-4.379106-7.692047-9.306353z" fill="#7190FF" p-id="5571"></path><path d="M184.862118 761.350024c-6.547576-6.330729-15.281694-9.493082-26.190306-9.493083-16.371953 0-27.605835 9.493082-33.984753 24.925365-6.384941 15.432282-9.179859 28.117835-18.751247 37.165176-6.384941 6.0416-14.456471 9.059388-24.220612 9.059389 16.251482 13.781835 39.363765 16.643012 69.342871 8.577505 44.959624-12.095247 57.235576-49.832659 51.0976-54.80207-6.137976-4.975435-8.041412 6.674071-29.744189 21.895529-14.468518 10.143624-27.467294 15.239529-38.996329 15.275671 32.1536-16.908047 53.019106-34.442541 62.602541-52.603482 8.035388-15.221459 7.637835-20.504094 5.421177-21.654589-0.879435-0.451765-3.608094 5.451294-9.396706 13.811953-1.276988 1.849224-3.674353 4.457412-7.180047 7.842636z m1202.169976-200.884706c-4.096-3.951435-9.553318-5.933176-16.371953-5.933177-10.227953 0-17.251388 5.933176-21.238965 15.576847-3.987576 9.649694-5.740424 17.576659-11.721788 23.238777-3.987576 3.770729-9.035294 5.662118-15.137129 5.662117 10.155671 8.613647 24.606118 10.396612 43.339294 5.354918 28.099765-7.559529 35.767718-31.141647 31.936753-34.255812-3.836988-3.108141-5.029647 4.174306-18.588612 13.685459-9.047341 6.342776-17.167059 9.529224-24.3712 9.553318 20.088471-10.571294 33.129412-21.528094 39.122824-32.888471 5.023624-9.517176 4.776659-12.806024 3.385223-13.522823-0.542118-0.283106-2.2528 3.403294-5.866917 8.631717-0.801129 1.156518-2.294965 2.788894-4.48753 4.89713z" fill="#11BC81" p-id="5572"></path><path d="M201.101553 736.641506l-0.246965 0.036141-0.12047 0.012047-0.481883 0.114447-0.439717 0.192753-0.662589 0.457788a6.577694 6.577694 0 0 0-1.138447 1.216753l-0.524047 0.740894-1.024 1.590212-3.180423 5.150118c-1.234824 1.963671-2.433506 3.794824-3.710494 5.638023l-0.421647 0.584283c-0.783059 1.017976-1.903435 2.288941-3.373177 3.812894l-1.030023 1.04207-0.4096-0.337317c-6.788518-5.372988-15.384094-8.047435-25.666259-8.047436-17.046588 0-29.659859 9.601506-36.767624 26.786636l-1.180612 2.921412-1.2288 3.162352-3.385223 8.975059c-4.071906 10.6496-7.186071 16.287624-12.245835 21.07633-5.806682 5.481412-13.131294 8.228141-22.148518 8.228141a3.011765 3.011765 0 0 0-1.9456 5.312753c17.106824 14.504659 41.219012 17.486306 72.071529 9.185882 20.805271-5.601882 36.641129-17.010447 46.411295-31.280188 8.095624-11.818165 10.950776-24.594071 5.800658-28.7744-1.6384-1.325176-3.318965-1.969694-5.13807-1.807059l-1.114353 0.120471-0.650541 0.150588c-0.626447 0.180706-1.204706 0.481882-1.933553 1.042071l-0.783059 0.650541-0.915577 0.861364-1.722729 1.746824-3.156329 3.331012c-5.710306 6.065694-10.691765 10.583341-17.956142 15.673223l-2.090164 1.439624a101.857882 101.857882 0 0 1-13.691483 7.854682l-2.451576 1.084235 1.608282-0.993882c21.925647-13.775812 36.809788-28.033506 44.62833-42.839341 7.770353-14.733553 9.324424-23.04 4.138164-25.726494a3.222588 3.222588 0 0 0-1.722729-0.385506z m-2.939482 13.052988l-0.349365 0.879435c-1.036047 2.517835-2.487718 5.638024-4.457412 9.366589-9.246118 17.528471-29.677929 34.695529-61.3376 51.344564-2.788894 1.469741-1.7408 5.692235 1.409506 5.680189 12.227765-0.042165 25.780706-5.360941 40.719059-15.823812l1.054117-0.758965 2.1504-1.614306 2.174495-1.728753 1.090258-0.903529 2.168471-1.831153 2.132329-1.867294 3.084047-2.794918 1.9456-1.819106 4.306824-4.138164 4.975435-4.885083a1.156518 1.156518 0 0 1 0.210824-0.180706c0.036141 0 0.090353 0.018071 0.180706 0.060236l0.361411 0.228894 0.277083 0.210823c0.885459 0.722824 0.722824 3.728565-0.560188 7.770353l-0.668612 1.9456a52.0192 52.0192 0 0 1-5.746447 10.974871c-8.975059 13.101176-23.606212 23.642353-43.008 28.864753l-2.547953 0.662588c-23.630306 5.9392-42.526118 4.716424-56.832-3.535812l-0.90353-0.542117 1.078212-0.2048a35.099106 35.099106 0 0 0 16.932141-8.914824c5.541647-5.240471 8.944941-11.131482 12.974683-21.329318l4.758588-12.528941 1.162541-2.951529 0.572235-1.397459c6.222306-15.058824 16.745412-23.070118 31.201883-23.070118 10.161694 0 18.142871 2.891294 24.094117 8.649789a3.011765 3.011765 0 0 0 4.186353 0c0.807153-0.771012 1.566118-1.511906 2.258824-2.216659l1.927529-2.005836c1.469741-1.578165 2.590118-2.927435 3.385224-4.071905 0.885459-1.283012 1.7408-2.553976 2.590117-3.861083l1.048095-1.662494z m1198.320941-205.691482l-0.162636 0.036141a2.541929 2.541929 0 0 0-0.909552 0.457788l-0.150589 0.150588a4.981459 4.981459 0 0 0-0.909553 0.963765l-0.433694 0.602353-3.535812 5.662118-1.337223 1.975717-0.331294 0.439718c-0.240941 0.319247-0.548141 0.680659-0.915577 1.084235l-0.93967 1.00593-0.957741-0.680659c-4.186353-2.788894-9.294306-4.180329-15.23953-4.18033-11.143529 0-19.419859 6.300612-24.021835 17.438118l-0.933647 2.319059-2.698541 7.125835c-2.493741 6.505412-4.367059 9.908706-7.378824 12.751812-3.409318 3.228612-7.710118 4.836894-13.065035 4.836894a3.011765 3.011765 0 0 0-1.9456 5.312753c11.004988 9.336471 26.455341 11.245929 46.067953 5.963294 24.841035-6.686118 42.224941-32.057224 33.051106-39.496282-1.234824-0.999906-2.56-1.505882-4.023718-1.385412l-0.361412 0.090353c-0.524047 0.192753-1.264941 0.674635-2.16847 1.367341l-0.758965 0.59633 0.662588-0.867389a46.441412 46.441412 0 0 0 3.577977-5.698258c5.168188-9.788235 6.228329-15.480471 2.108235-17.6128a3.023812 3.023812 0 0 0-2.168471-0.301177l-0.12047 0.042165z m-25.822871 13.540894c6.071718 0 10.776094 1.704659 14.275765 5.089882l0.469835 0.361412a3.011765 3.011765 0 0 0 3.710494-0.361412l0.18673-0.180706-0.301177 0.457789c-6.445176 9.396706-18.275388 18.697035-35.526776 27.76847-2.788894 1.469741-1.7408 5.686212 1.409506 5.680188 7.902871-0.030118 16.5888-3.433412 26.093929-10.095435a70.746353 70.746353 0 0 0 10.577318-8.987106l4.445364-4.644141 0.018071 0.150588c0 0.439718-0.144565 1.283012-0.469835 2.391341l-0.469836 1.445648a33.045082 33.045082 0 0 1-3.716517 7.246305c-5.457318 7.969129-14.378165 14.396235-26.244518 17.588706l-1.96367 0.505977c-12.992753 3.204518-23.558024 2.8672-31.822306-0.915577l-0.512-0.252988 0.536094-0.156612a23.009882 23.009882 0 0 0 8.41487-5.101929c3.529788-3.343059 5.716329-7.0656 8.222118-13.354165l3.312941-8.691953 0.897506-2.228706c3.722541-9.005176 9.908706-13.715576 18.456094-13.715576z" fill="#6274B3" p-id="5573"></path></svg>